<?xml version="1.0"?>
<svg width="640" height="480" xmlns="http://www.w3.org/2000/svg" xmlns:svg="http://www.w3.org/2000/svg">
 <!-- Created with SVG-edit - https://github.com/SVG-Edit/svgedit-->
 <g class="layer">
  <title>Layer 1</title>
  <g id="svg_34"/>
  <g id="svg_36">
   <path d="m248.678131,240.103986c0,3.528221 -2.980212,6.386696 -6.658724,6.386696l-42.640667,0c-3.678493,0 -6.658714,-2.858466 -6.658714,-6.386696l0,-86.890784c0,-3.527949 2.980212,-6.386696 6.658714,-6.386696l42.640667,0c3.678512,0 6.658724,2.858747 6.658724,6.386696l0,86.890784zm-157.867533,0c0,3.528221 -2.980798,6.386696 -6.658724,6.386696l-42.641244,0c-3.677925,0 -6.658714,-2.858466 -6.658714,-6.386696l0,-86.890784c0,-3.527949 2.980789,-6.386696 6.658714,-6.386696l42.641244,0c3.677925,0 6.658724,2.858747 6.658724,6.386696l0,86.890784zm51.515702,-235.613312c-77.160438,0 -139.796829,59.534294 -140.758771,133.316768l24.428356,0c0.792118,-60.982027 52.562835,-110.185346 116.330415,-110.185346c63.767571,0 115.538316,49.20332 116.321173,110.185346l24.427788,0c-0.952142,-73.782474 -63.60696,-133.316768 -140.748971,-133.316768l0.000009,0zm-140.560739,200.902225l23.98509,0l0,-67.721279l-23.98509,0l0,67.721279zm256.683909,-67.730397l0,67.721569l24.871026,0l0,-67.721569l-24.871026,0z" fill="#000000" id="svg_20" stroke="#000000" stroke-dasharray="null" stroke-linecap="null" stroke-linejoin="null" stroke-width="0"/>
   <path d="m142.0248,150.709838c-27.062268,0 -49,20.818461 -49,46.500002c0,25.681541 21.937732,46.500002 49,46.500002c27.062268,0 49,-20.818461 49,-46.500002c0,-25.681541 -21.937732,-46.500002 -49,-46.500002zm10.646897,69.756402c-0.266341,0.204761 -0.616967,0.415921 -0.353998,0.662275c0.26297,0.249553 -0.303426,0.419121 -0.303426,0.543897s0.350626,0.787051 0.175313,1.074997c-0.175313,0.294344 -0.306798,0.713465 -0.438283,0.963018c-0.131485,0.246353 -0.441654,0.495906 -0.350626,0.870235c0.084285,0.37113 -0.350626,0.246353 -0.350626,0.620683c0,0.37113 0.391083,0.207961 0.303426,0.665474c-0.084285,0.460713 -0.303426,0.585489 -0.303426,0.911827c0,0.332737 0.21577,0.79025 0.21577,0.915027s-0.21577,0.543897 -0.522568,0.870235c-0.310169,0.332737 -0.522568,0.543897 -0.485482,0.745459c0.0472,0.207961 0.350626,0.460713 0.306798,0.588689c-0.043828,0.118378 -0.434911,0.537498 -0.391083,0.828643c0.0472,0.287946 0.434911,0.169568 0.522568,0.37113c0.087657,0.207961 -0.522568,0.377529 -0.26297,0.585489c0.26297,0.204761 0.616967,0.163169 0.525939,0.665474c-0.064057,0.358332 0.21577,0.521501 0.424797,0.63348c-3.003922,0.707066 -6.129214,1.126187 -9.362392,1.126187c-21.442136,0 -38.882414,-16.550469 -38.882414,-36.898619c0,-6.632345 1.877873,-12.84557 5.117793,-18.226952c0.266341,-0.134375 0.461882,-0.220758 0.57651,-0.198362c0.219141,0.041592 0.266341,0.332737 0.616967,0.415921c0.350626,0.083184 0.657424,-0.249553 0.876565,-0.374329c0.21577,-0.124776 0.391083,-0.623882 0.171942,-0.58229c-0.219141,0.041592 -0.788909,0 -0.788909,0s0.616967,-0.332737 0.616967,-0.540698s0.084285,-0.540698 0.434911,-0.665474c0.347255,-0.127976 0.347255,-0.044792 0.128113,0.454314c-0.219141,0.499106 0.441654,0.291145 0.701252,0.083184s0.438283,-0.041592 0.917022,-0.332737c0.482111,-0.291145 0.482111,-0.457513 0.745081,-0.457513c0.26297,0 0.745081,0.457513 1.00805,0.291145c0.259598,-0.166369 1.00805,0.207961 1.446333,0.207961c0.434911,0 1.837416,0.540698 2.103757,0.540698c0.26297,0 1.051878,0.287946 1.095707,0.828643c0.043828,0.540698 0.303426,0.499106 0.566396,0.499106s0.876565,0.207961 0.876565,0.415921c0,0.207961 -0.175313,1.039803 0.26297,1.247764c0.434911,0.204761 0.832737,0.540698 1.00805,0.457513c0.175313,-0.083184 0,-0.745459 -0.21577,-0.831843c-0.219141,-0.083184 -0.091028,-0.374329 -0.175313,-0.540698c-0.087657,-0.163169 0.26297,-0.163169 0.394454,0.124776c0.131485,0.291145 0.482111,0.831843 0.701252,0.831843c0.21577,0 0.701252,0.499106 0.566396,0.79025c-0.131485,0.291145 0.131485,0.707066 0.525939,0.707066c0.391083,0 0.876565,0.58229 1.051878,0.623882c0.175313,0.041592 0.394454,0.249553 0.394454,0.374329c0,0.127976 0.219141,0.831843 0.219141,1.122988c0,0.287946 -0.134856,1.452525 -0.178684,1.910039s0.350626,1.247764 0.788909,1.663685c0.434911,0.415921 0.829366,1.206172 1.092335,1.37254c0.266341,0.166369 0.438283,0.623882 0.832737,0.58229c0.394454,-0.041592 0.657424,0.249553 1.00805,0.831843c0.350626,0.58229 0.701252,1.535709 0.964222,1.618894c0.26297,0.083184 0.701252,0.374329 0.47874,0.58229c-0.21577,0.204761 -0.566396,0.665474 -0.171942,0.665474c0.394454,0 0.525939,-0.207961 0.832737,0.169568c0.303426,0.37113 0.701252,0.57909 0.654053,0.831843c-0.043828,0.246353 0.350626,0.329538 0.525939,0.37113c0.175313,0.041592 0.569767,0.79025 0.964222,0.457513c0.394454,-0.332737 -0.522568,-0.828643 -0.788909,-1.043003c-0.26297,-0.204761 0,-0.662275 -0.613596,-1.119788c-0.613596,-0.457513 -0.525939,-0.79025 -0.964222,-1.122988c-0.438283,-0.332737 -0.785537,-0.623882 -0.350626,-0.915027c0.438283,-0.291145 0.482111,0.291145 0.657424,0.665474c0.175313,0.37113 1.092335,1.122988 1.48679,1.452525c0.394454,0.332737 1.099078,1.497317 1.314848,1.497317s0.832737,0.665474 0.832737,0.665474s0.347255,0.537498 0.21577,0.703867c-0.131485,0.166369 0.178684,0.79025 0.485482,0.956619c0.303426,0.166369 1.533989,0.703867 1.709302,0.79025c0.175313,0.086384 0.522568,0.707066 1.00805,0.707066c0.47874,0 0.832737,0.044792 0.964222,0.169568c0.131485,0.121577 0.522568,0.620683 0.788909,0.332737c0.26297,-0.294344 0.303426,-0.419121 0.701252,-0.419121c0.394454,0 0.566396,0.291145 0.785537,0.499106c0.219141,0.207961 0.832737,0.751858 1.139535,0.710266c0.306798,-0.041592 0.701252,0.332737 0.920394,0.204761s0.569767,0.079985 0.741709,0.166369c0.182056,0.083184 0.788909,0.377529 0.748452,0.870235c-0.043828,0.502305 0.347255,0.623882 0.613596,0.748658c0.26297,0.124776 0.613596,0.415921 0.836108,0.623882c0.21577,0.201562 0.694509,0.246353 0.829366,0.37113c0.131485,0.124776 0.219141,0.374329 0.613596,0.166369c0.391083,-0.204761 0.310169,-0.57909 0.310169,-0.57909s0.434911,-0.083184 0.654053,0.083184c0.21577,0.15997 0.350626,0.703867 0.485482,0.787051c0.128113,0.083184 0.387712,0.707066 0.212399,1.158181c-0.171942,0.463912 -0.128113,0.915027 -0.306798,0.915027c-0.175313,0 -0.391083,0.543897 -0.657424,0.668673c-0.256227,0.124776 -0.96085,0.707066 -0.917022,0.915027c0.043828,0.201562 0.441654,0.825444 0.350626,1.119788c-0.084285,0.291145 -0.654053,0.623882 -0.519196,1.081395c0.128113,0.460713 1.051878,0.585489 1.088964,0.998211c0.0472,0.419121 0.704624,1.334148 0.79228,1.74687c0.084285,0.415921 0.829366,0.870235 0.829366,1.449326c0,0.588689 1.051878,0.959818 1.27102,0.998211c0.212399,0.041592 0.613596,0.419121 0.917022,0.543897s0.569767,0.37113 0.785537,0.707066s0.178684,0.835042 0.178684,0.956619c0,0.124776 -0.131485,1.407734 -0.26297,2.156392c-0.134856,0.751858 0.16857,1.334148 -0.091028,1.545308zm-28.292831,-38.651887c0.131485,0.041592 0.394454,0.291145 0.525939,0.291145c0.134856,0 0.788909,0.499106 0.964222,0.665474c0.178684,0.166369 0.178684,0.623882 -0.043828,0.665474s-0.350626,-0.457513 -0.394454,-0.665474c-0.043828,-0.207961 -0.482111,-0.207961 -0.701252,-0.332737c-0.219141,-0.124776 -0.707995,-0.73906 -0.350626,-0.623882zm56.450805,16.707239c-0.485482,0.58229 -0.438283,0.870235 -0.657424,0.915027c-0.21577,0.041592 0.219141,0.207961 0.303426,0.620683c0.074171,0.358332 -0.219141,0.716664 0.212399,1.046202c-1.638503,14.778004 -12.507913,26.983695 -27.025182,31.312476c-0.0236,-0.035193 -0.064057,-0.079985 -0.0708,-0.108779c-0.091028,-0.249553 -0.091028,-0.745459 0.21577,-0.911827c0.306798,-0.169568 1.051878,-0.745459 1.22382,-0.870235c0.175313,-0.127976 0.438283,-0.707066 0.306798,-0.79025c-0.128113,-0.083184 -0.782166,0 -0.876565,-0.124776c-0.087657,-0.124776 -0.087657,-0.294344 0.350626,-0.58229c0.438283,-0.291145 0.657424,-0.710266 0.832737,-0.831843c0.175313,-0.124776 0.522568,-0.374329 0.657424,-0.668673c0.128113,-0.287946 -0.138228,-0.124776 -0.397826,-0.124776s-0.394454,-0.454314 -0.394454,-0.662275s0.657424,0.083184 1.142906,0.166369c0.482111,0.076785 0.259598,-0.207961 0.21577,-0.454314c-0.043828,-0.249553 0.087657,-0.668673 0.353998,-0.543897c0.256227,0.124776 1.614903,-0.041592 1.790216,-0.083184c0.175313,-0.041592 0.654053,-0.787051 0.829366,-0.998211c0.178684,-0.207961 0.21577,-0.412722 0,-0.537498c-0.219141,-0.127976 -0.482111,-0.588689 -0.566396,-0.707066c-0.087657,-0.131175 -0.131485,-0.876634 -0.043828,-1.087794c0.084285,-0.201562 0,1.206172 0.610224,1.37574c0.616967,0.166369 0.964222,0.249553 1.533989,-0.249553c0.569767,-0.495906 1.004679,-0.831843 1.051878,-1.16138c0.043828,-0.332737 0.175313,-0.668673 0.394454,-0.787051c0.219141,-0.124776 0.350626,0.329538 0.613596,-0.207961c0.26297,-0.543897 0.525939,-0.502305 0.788909,-0.956619c0.259598,-0.460713 -0.438283,-1.039803 0.080914,-1.37574c0.529311,-0.329538 1.449704,-0.745459 1.449704,-0.745459s0.26297,-0.124776 0.788909,-0.249553c0.522568,-0.121577 1.092335,-0.044792 1.267648,-0.287946c0.175313,-0.252752 0.350626,-0.79025 0.613596,-1.081395c0.266341,-0.294344 0.569767,-0.748658 0.438283,-0.956619c-0.131485,-0.207961 0.350626,-1.126187 0.306798,-1.37254c-0.043828,-0.249553 -0.438283,-0.835042 0.219141,-1.330948s1.355305,-1.250963 1.402504,-1.452525c0.040457,-0.207961 0.569767,-1.081395 0.519196,-1.500516c-0.040457,-0.412722 -0.519196,-0.911827 -0.825994,-1.039803c-0.310169,-0.118378 -0.964222,-0.15997 -1.227191,-0.492707s-1.00805,-0.665474 -1.27102,-0.58229c-0.259598,0.083184 -0.701252,0.163169 -1.051878,-0.047991c-0.350626,-0.201562 -0.917022,-0.457513 -1.136163,-0.620683c-0.222513,-0.163169 -0.788909,-0.287946 -1.051878,-0.287946s-0.219141,-0.169568 -0.613596,0.329538c-0.394454,0.502305 0,0.668673 -0.701252,0.58229c-0.704624,-0.076785 0.084285,-0.121577 0.485482,-0.620683c0.387712,-0.495906 -0.0472,-0.79025 -0.485482,-0.662275c-0.438283,0.124776 -0.131485,0.374329 -0.832737,0.499106c-0.697881,0.121577 -0.697881,-0.294344 -0.259598,-0.374329c0.438283,-0.083184 1.22382,-0.457513 1.22382,-0.620683c0,-0.169568 -0.087657,-0.627081 -0.438283,-0.627081s-0.26297,-0.412722 -0.785537,-0.95022c-0.525939,-0.543897 -1.183363,-0.876634 -1.712674,-0.796649c-0.519196,0.083184 -0.917022,0.207961 -1.179992,-0.243154c-0.26297,-0.460713 -0.569767,-0.543897 -0.748452,-0.79025c-0.171942,-0.249553 -0.613596,0 -0.745081,-0.124776s-0.131485,-0.124776 -0.131485,-0.124776s-0.569767,0.124776 -0.259598,-0.249553c0.303426,-0.374329 0.434911,-1.081395 0.303426,-1.039803c-0.128113,0.041592 -0.350626,0.627081 -0.566396,0.585489c-0.21577,-0.041592 -0.0472,-0.127976 -0.485482,-0.374329c-0.438283,-0.249553 -1.136163,-0.041592 -1.136163,0.166369c0,0.207961 -0.219141,0.374329 -0.219141,0.374329s-0.131485,-0.121577 -0.26297,-0.374329c-0.131485,-0.249553 -0.745081,-0.291145 -1.051878,-0.041592c-0.303426,0.249553 -0.47874,-0.627081 -0.697881,-0.627081s-0.654053,0.207961 -0.876565,0.588689c-0.21577,0.37113 -0.128113,0.911827 -0.310169,0.870235c-0.16857,-0.041592 -0.212399,-0.745459 -0.16857,-0.998211c0.040457,-0.252752 0.522568,-0.665474 0.16857,-0.748658c-0.347255,-0.083184 -0.873194,0.415921 -1.088964,0.457513c-0.219141,0.041592 -0.657424,0.332737 -0.920394,0.668673c-0.259598,0.329538 -0.391083,0.537498 -0.657424,0.662275c-0.259598,0.124776 -0.650681,0 -0.563025,-0.124776c0.084285,-0.124776 -0.748452,-0.57909 -0.879937,-0.415921c-0.134856,0.166369 -0.522568,0.291145 -0.917022,0.460713c-0.394454,0.166369 -0.748452,-0.207961 -0.832737,-0.374329s-0.266341,-0.204761 -0.306798,-0.748658c-0.043828,-0.537498 0.091028,-1.122988 0.219141,-1.452525c0.128113,-0.332737 -0.657424,-0.998211 -0.964222,-0.959818c-0.306798,0.047991 -0.613596,0.335936 -0.917022,0.291145c-0.310169,-0.038393 -0.175313,-0.121577 -0.657424,-0.121577c-0.482111,0 -0.087657,-0.079985 0,-0.457513c0.084285,-0.37113 -0.175313,-0.873435 0.310169,-1.206172c0.47874,-0.332737 0.306798,-1.122988 0,-1.16138c-0.310169,-0.044792 -0.879937,0.124776 -1.27102,0.083184c-0.391083,-0.044792 -0.701252,0.291145 -0.569767,0.662275c0.131485,0.374329 -0.219141,0.623882 -0.350626,0.585489c-0.131485,-0.041592 -0.303426,-0.249553 -0.788909,0.083184c-0.47874,0.329538 -0.654053,0.204761 -1.136163,-0.166369c-0.482111,-0.377529 -1.00805,-0.748658 -1.095707,-1.330948c-0.087657,-0.58229 -0.134856,-1.16458 0.043828,-1.497317c0.171942,-0.332737 0.171942,-0.911827 -0.087657,-0.998211c-0.26297,-0.079985 0.303426,-0.495906 0.610224,-0.57909c0.310169,-0.083184 0.788909,-0.457513 0.876565,-0.623882c0.087657,-0.166369 0.525939,-0.127976 1.004679,-0.127976c0.482111,0 0.569767,0 1.051878,0.249553c0.482111,0.249553 0.569767,-0.124776 0.569767,-0.249553c0,-0.124776 0.175313,-0.374329 0.701252,-0.332737c0.525939,0.041592 1.267648,-0.166369 1.402504,-0.041592s0.391083,0.623882 0.654053,0.457513c0.266341,-0.163169 0.350626,-0.457513 0.441654,0.044792c0.084285,0.495906 0.303426,1.247764 0.701252,1.37254c0.391083,0.124776 0.175313,0.620683 0.566396,0.662275c0.387712,0.041592 0.573139,-0.787051 0.441654,-1.078196c-0.134856,-0.287946 -0.397826,-1.16138 -0.616967,-1.369341c-0.21577,-0.207961 -0.21577,-0.748658 0.21577,-0.915027c0.438283,-0.166369 1.490161,-0.998211 1.793587,-1.244565c0.310169,-0.252752 1.139535,-0.460713 0.879937,-0.79345c-0.26297,-0.332737 -0.350626,-0.537498 -0.350626,-0.79025s0.26297,-0.166369 0.394454,0s0.654053,-0.249553 0.522568,-0.457513c-0.128113,-0.204761 -0.087657,-0.495906 0.219141,-0.457513c0.306798,0.041592 0.391083,-0.207961 0.26297,-0.374329c-0.131485,-0.166369 0.306798,-0.374329 0.613596,-0.291145c0.310169,0.083184 1.095707,-0.041592 1.227191,-0.207961c0.128113,-0.166369 -0.26297,-0.332737 -0.26297,-0.665474c0,-0.332737 0.522568,-0.623882 0.832737,-0.665474c0.306798,-0.041592 0.697881,0 0.745081,-0.124776c0.040457,-0.124776 0.482111,-0.457513 0.522568,-0.166369c0.0472,0.291145 0,0.79025 0.350626,0.79025c0.350626,0 0.782166,-0.374329 0.917022,-0.412722c0.128113,-0.041592 0.964222,-0.207961 1.139535,-0.249553c0.175313,-0.041592 1.22382,-0.124776 1.095707,-0.415921c-0.131485,-0.287946 -0.26297,-0.57909 -0.397826,-0.703867c-0.131485,-0.124776 -0.259598,0.041592 -0.438283,0.249553c-0.171942,0.207961 -0.482111,0.207961 -0.566396,0.041592c-0.087657,-0.163169 0.040457,-0.662275 -0.26297,-0.499106c-0.310169,0.166369 -0.350626,0.332737 -0.529311,0.249553c-0.175313,-0.083184 -0.347255,-0.374329 -0.347255,-0.374329s0.434911,-0.204761 0.128113,-0.58229c-0.303426,-0.374329 -0.745081,-0.291145 -1.179992,-0.079985c-0.438283,0.204761 -0.397826,0.163169 -0.920394,0.287946s-0.788909,0.249553 -0.788909,0.249553s0.704624,-0.412722 1.00805,-0.665474c0.306798,-0.249553 0.704624,-0.374329 0.964222,-0.623882c0.26297,-0.249553 0.96085,0.124776 0.96085,0.124776s0.353998,-0.332737 0.353998,-0.124776s-0.091028,0.748658 0.171942,0.748658c0.266341,0 1.00805,-0.332737 0.707995,-0.419121c-0.313541,-0.083184 0.434911,0 0.738338,-0.207961c0.310169,-0.207961 0.654053,-0.207961 0.832737,-0.287946c0.175313,-0.083184 0.310169,-0.457513 0.613596,-0.457513c0.310169,0 0.438283,0.374329 0,0.623882s-0.482111,0.873435 -0.701252,1.039803c-0.21577,0.166369 -0.087657,0.374329 0.26297,0.332737c0.350626,-0.041592 0.654053,0.041592 0.964222,-0.041592s0.482111,0.083184 0.566396,0.207961c0.087657,0.124776 0.350626,-0.124776 0.350626,-0.124776s0.569767,-0.124776 0.745081,0.083184c0.178684,0.204761 0.310169,-0.124776 0.178684,-0.332737c-0.131485,-0.204761 -0.310169,-0.412722 -0.438283,-0.665474c-0.131485,-0.249553 -0.306798,-0.332737 -0.654053,-0.249553c-0.350626,0.083184 -0.438283,-0.083184 -0.657424,-0.204761c-0.219141,-0.127976 -0.397826,0.166369 -0.219141,-0.127976c0.178684,-0.287946 0.26297,-0.374329 0.394454,-0.623882c0.131485,-0.249553 0.704624,-0.707066 0.131485,-0.828643c-0.569767,-0.127976 -0.748452,-0.207961 -0.832737,-0.457513c-0.087657,-0.249553 -0.745081,-0.707066 -0.917022,-0.707066c-0.178684,0 -0.785537,0 -0.832737,-0.207961c-0.043828,-0.207961 -0.482111,-0.665474 -0.701252,-0.873435c-0.21577,-0.207961 -1.051878,-1.122988 -1.183363,-1.206172c-0.131485,-0.083184 -0.306798,-0.041592 -0.701252,0.457513c-0.391083,0.502305 -0.741709,0.585489 -1.051878,0.460713c-0.306798,-0.124776 -0.350626,-0.083184 -0.650681,-0.415921c-0.313541,-0.332737 0.303426,-0.374329 0.171942,-0.58229c-0.134856,-0.204761 -0.832737,-0.291145 -1.27102,-0.332737c-0.438283,-0.041592 -0.745081,-0.499106 -1.402504,-0.540698c-0.654053,-0.041592 -1.442961,0.083184 -1.662103,0.083184c-0.21577,0 -0.21577,0.291145 -0.303426,0.748658c-0.091028,0.457513 0.303426,0.58229 -0.091028,0.665474c-0.391083,0.083184 -0.569767,0.124776 -0.175313,0.291145c0.394454,0.166369 0.920394,0.831843 0.920394,0.831843s0,0.374329 -0.310169,0.58229c-0.303426,0.207961 -0.613596,0.415921 -0.785537,0.169568c-0.178684,-0.252752 -0.657424,-0.207961 -0.522568,0.041592c0.128113,0.249553 0.391083,0.374329 0.391083,0.623882c0,0.246353 0.394454,0.870235 0.131485,1.078196c-0.26297,0.207961 -0.566396,0.044792 -0.785537,0.083184s-0.441654,-0.332737 -0.26297,-0.415921c0.171942,-0.083184 -0.0472,-0.707066 -0.0472,-0.707066s-0.522568,0.707066 -0.482111,0.332737c0.0472,-0.374329 -0.21577,-0.415921 -0.21577,-0.707066c0,-0.291145 -0.266341,-0.415921 -0.654053,-0.332737c-0.397826,0.083184 -0.876565,-0.127976 -1.625017,-0.252752c-0.741709,-0.124776 -1.048507,-0.204761 -1.662103,-0.499106c-0.613596,-0.291145 -0.832737,-0.083184 -1.139535,-0.041592c-0.306798,0.041592 -0.175313,-0.58229 -0.569767,-0.662275c-0.391083,-0.086384 -0.610224,0.079985 -0.697881,-0.460713c-0.087657,-0.537498 0.131485,-0.665474 1.092335,-1.247764c0.964222,-0.58229 0.832737,-0.831843 1.577818,-0.915027c0.741709,-0.083184 1.095707,0.083184 1.095707,-0.124776s0.175313,-1.039803 0.175313,-0.623882s0.883308,0.441516 0.485482,0.732661c-0.391083,0.291145 -0.175313,0.332737 0.134856,0.332737c0.306798,0 0.873194,-0.291145 0.873194,-0.291145s0.701252,-0.291145 0.876565,-0.041592c0.178684,0.249553 0.178684,0.499106 0.485482,0.499106s0.96085,-0.332737 0.391083,-0.623882c-0.566396,-0.291145 -0.917022,-0.249553 -1.267648,-0.58229s-0.26297,-0.207961 -0.657424,-0.124776c-0.391083,0.083184 -0.391083,-0.124776 -0.525939,-0.124776s-0.350626,0.083184 -0.438283,-0.083184c-0.084285,-0.166369 0.0472,-0.207961 0.488854,-0.207961c0.434911,0 0.96085,0.124776 0.96085,0.124776s0.522568,-0.166369 0.654053,-0.207961c0.131485,-0.041592 0.832737,-0.124776 0.701252,-0.495906c-0.134856,-0.374329 -0.569767,-0.374329 -0.701252,-0.499106s0.26297,-0.287946 0.482111,-0.374329c0.219141,-0.083184 0.832737,0 0.832737,0s0.394454,0.041592 0.394454,-0.124776s-0.094399,-0.374329 0.171942,-0.249553s0,0.499106 0.394454,0.415921c0.391083,-0.083184 0.482111,0 0.697881,0.124776c0.219141,0.124776 -0.043828,0.623882 -0.259598,0.707066c-0.219141,0.079985 -0.569767,0.246353 -0.087657,0.287946c0.485482,0.044792 0.829366,0.044792 0.829366,0.044792s0.310169,-0.291145 0.441654,-0.540698c0.128113,-0.249553 0.350626,-0.083184 0.522568,0c0.175313,0.079985 0.832737,0.207961 0.219141,0.374329c-0.616967,0.166369 -0.745081,0.374329 -0.876565,0.58229c-0.128113,0.207961 -0.178684,0.332737 -0.745081,0.207961c-0.573139,-0.124776 -0.876565,-0.083184 -1.00805,0.124776c-0.131485,0.204761 -0.043828,0.873435 0.178684,0.79025c0.212399,-0.083184 0.434911,-0.083184 0.697881,-0.166369c0.26297,-0.083184 1.314848,0.083184 1.574446,0.041592c0.26297,-0.041592 0.704624,0.415921 0.836108,0.332737c0.131485,-0.083184 0.394454,0.166369 0.654053,0.332737c0.26297,0.166369 0.175313,-0.374329 0.654053,-0.041592c0.485482,0.332737 0.219141,0.332737 0.485482,0.332737c0.256227,0 0.829366,0.041592 0.829366,0.041592s0.0472,-0.412722 0.485482,-0.332737c0.438283,0.083184 0.825994,0.540698 0.782166,0.204761c-0.040457,-0.329538 0.043828,-0.57909 -0.303426,-0.828643c-0.350626,-0.249553 -0.917022,-0.415921 -1.00805,-0.540698c-0.087657,-0.124776 -0.175313,-0.291145 -0.043828,-0.374329c0.131485,-0.079985 0.745081,0.041592 1.092335,0.252752c0.350626,0.207961 0.657424,0.415921 0.920394,0.249553c0.259598,-0.166369 0.573139,-0.249553 0.701252,-0.374329c0.128113,-0.127976 0.438283,-0.499106 0.438283,-0.499106s-1.318219,-0.163169 -1.48679,-0.374329c-0.178684,-0.207961 -0.79228,-0.499106 -0.967593,-0.499106s-0.654053,0.291145 -0.829366,-0.124776s-0.175313,-0.915027 -0.353998,-0.956619c-0.16857,-0.041592 -2.012729,-0.291145 -2.272327,-0.415921c-0.26297,-0.124776 -1.314848,-0.415921 -1.709302,-0.623882s-0.964222,-0.499106 -1.311477,-0.499106c-0.350626,0 -1.796959,0.166369 -2.059928,0.124776c-0.26297,-0.041592 -1.051878,0.083184 -1.358676,0.124776c-0.306798,0.041592 0.394454,0.58229 -0.259598,0.707066c-0.657424,0.124776 -0.569767,0.207961 -0.438283,-0.415921c0.128113,-0.623882 -0.441654,-0.79025 -1.00805,-0.540698c-0.569767,0.249553 -1.490161,0.415921 -1.27102,0.707066c0.219141,0.291145 -0.040457,0.502305 0.394454,0.79025c0.438283,0.291145 0.616967,0.374329 1.179992,0.332737c0.573139,-0.041592 1.142906,0.079985 1.142906,0.079985s0,0.502305 -0.21577,0.58229c-0.219141,0.083184 -0.569767,0.083184 -0.660795,0.332737c-0.084285,0.249553 -0.522568,0.374329 -0.522568,0.249553s0.219141,-0.540698 -0.087657,-0.748658c-0.303426,-0.207961 -0.394454,-0.249553 -0.745081,-0.041592c-0.350626,0.207961 -0.391083,0.291145 -0.569767,-0.041592c-0.175313,-0.332737 -0.701252,-0.623882 -0.701252,-0.623882s-0.350626,-0.412722 -0.613596,-0.620683c-0.259598,-0.207961 -0.741709,-0.166369 -0.788909,0.041592c-0.043828,0.204761 0.087657,0.412722 0.26297,0.79025c0.175313,0.374329 0.350626,1.078196 0.043828,1.122988c-0.306798,0.041592 -0.350626,0.083184 -0.657424,0.166369c-0.306798,0.083184 -0.438283,-0.124776 -0.438283,-0.457513s-0.134856,-0.623882 -0.043828,-0.748658c0.087657,-0.124776 -0.350626,0.086384 -0.788909,0c-0.438283,-0.079985 -0.785537,0.166369 -0.350626,0.294344c0.438283,0.124776 0.529311,0.620683 0.131485,0.745459c-0.394454,0.124776 -1.884615,0 -2.366726,0s-1.179992,0.124776 -1.314848,-0.124776c-0.131485,-0.249553 0.397826,-0.412722 0.701252,-0.412722c0.306798,0 1.22382,0.038393 1.574446,-0.415921c0.350626,-0.457513 -0.438283,-0.540698 -0.785537,-0.540698c-0.350626,0 -0.616967,-0.124776 -1.00805,-0.495906c-0.397826,-0.374329 0.26297,-0.623882 0.175313,-0.79025c-0.087657,-0.166369 -0.525939,-0.044792 -0.917022,-0.044792c-0.394454,0 -1.00805,-0.287946 -1.00805,0.044792c0,0.332737 0.482111,1.286157 0.175313,1.078196c-0.306798,-0.204761 -0.26297,-0.499106 -0.482111,-0.748658c-0.219141,-0.249553 -0.566396,-0.207961 -1.00805,-0.166369c-0.434911,0.041592 -1.179992,0.166369 -1.399133,0.124776c-0.21577,-0.041592 -0.043828,-0.041592 -0.525939,-0.249553c-0.47874,-0.207961 -0.701252,-0.166369 -1.051878,-0.374329c-0.347255,-0.214359 -0.040457,-0.294344 -0.654053,-0.335936c-0.610224,-0.041592 -0.566396,0.287946 -1.179992,0.207961c-0.613596,-0.083184 -0.788909,0.041592 -1.402504,0c-0.613596,-0.041592 -0.917022,-0.083184 -1.00805,0.207961c-0.084285,0.291145 -0.26297,0.79025 -0.525939,0.79025c-0.259598,0 -0.569767,0.291145 0.26297,0.332737c0.832737,0.041592 0.353998,0.412722 1.095707,0.374329c0.745081,-0.041592 1.402504,-0.041592 1.577818,-0.374329c0.175313,-0.332737 0.306798,-0.332737 0.394454,-0.207961c0.084285,0.124776 0.741709,0.870235 0.741709,0.870235s0.441654,0.332737 0.616967,0.415921c0.171942,0.083184 -0.175313,0.457513 -0.525939,0.249553c-0.350626,-0.207961 -1.00805,-0.163169 -1.27102,-0.37113c-0.26297,-0.207961 -1.446333,-0.207961 -1.753131,-0.166369c-0.303426,0.041592 -0.832737,-0.124776 -1.00805,-0.124776c-0.171942,0 -0.745081,0.415921 -0.745081,0.415921s-0.219141,-0.335936 -0.347255,-0.502305c-0.131485,-0.166369 -0.350626,0.166369 -0.525939,0.207961c-0.175313,0.041592 -0.701252,-0.332737 -1.227191,-0.166369c-0.525939,0.166369 -0.350626,0.332737 -1.095707,0.291145s-0.917022,-0.166369 -1.179992,-0.124776c-0.266341,0.041592 -0.266341,0.041592 -0.266341,0.041592s0.043828,0.166369 -0.259598,0.332737c-0.306798,0.166369 -0.529311,0.374329 -0.748452,0.124776c-0.21577,-0.249553 -0.347255,-0.249553 -0.47874,-0.291145c-0.134856,-0.041592 -0.397826,-0.249553 -0.964222,-0.127976c-0.569767,0.127976 -1.446333,-0.163169 -1.618274,-0.163169c-0.134856,0 -1.05525,-0.047991 -1.65536,-0.10558c7.110293,-7.333013 17.275079,-11.965736 28.582772,-11.965736c7.17435,0 13.880074,1.884443 19.655291,5.112633c-0.394454,0.230356 -1.075478,0.191964 -1.308105,0.073586c-0.26297,-0.137574 -0.532682,-0.249553 -1.601417,-0.195163c-1.068735,0.057589 -2.241984,0.390326 -2.005986,0.723063c0.242741,0.332737 -0.47874,0.5279 -0.664167,0.361532c-0.185427,-0.166369 -1.041764,0.191964 -0.987822,0.5279c0.053942,0.332737 -0.131485,0.719864 -0.589996,0.63668c-0.451768,-0.086384 -0.772052,0.191964 -0.799023,0.467112c-0.0236,0.278347 -1.041764,0.470311 -1.119306,0.470311c-0.080914,0 -1.389019,-0.025595 -0.910279,0.303942c0.327026,0.220758 0.505711,0.086384 0.910279,0.166369c0.401197,0.083184 0.721481,0.694269 0.933879,0.777453c0.209027,0.083184 0.505711,0 0.637196,-0.166369c0.134856,-0.166369 0.320283,-0.748658 0.320283,-0.748658s0,0.553495 0.327026,0.665474c0.320283,0.111979 1.115935,-0.083184 1.331705,-0.05439c0.21577,0.025595 1.473304,0.195163 1.813816,0.358332c0.350626,0.166369 1.20022,0.278347 1.442961,0.63668c0.23937,0.361532 0.269712,1.609296 0.401197,1.74687c0.134856,0.137574 0.586624,-0.444716 0.691138,-0.58229c0.104514,-0.140773 0.667538,-0.057589 0.856337,0.134375c0.188799,0.195163 0.613596,0.665474 0.589996,0.860637c-0.033714,0.198362 -0.111256,0.499106 -0.269712,0.390326c-0.161827,-0.108779 -0.428168,-0.079985 -0.323655,-0.303942c0.107885,-0.220758 0.161827,-0.694269 -0.050571,-0.694269c-0.21577,0 -0.401197,0 -0.401197,0s-0.404569,-0.111979 -0.67091,0.303942s-0.050571,0.831843 0.134856,0.831843s0.620339,0 0.620339,0.108779c0,0.111979 -0.458511,0.444716 -0.43154,0.639879c0.030343,0.195163 0.370855,0.857438 0.485482,0.998211c0.104514,0.137574 0.664167,0.275148 0.822623,0.307142c0.165199,0.025595 -0.374226,0.05439 -0.235998,0.246353c0.134856,0.195163 0.343883,0.665474 0.637196,0.777453c0.293312,0.111979 1.122678,0.607885 1.22382,0.831843c0.107885,0.220758 0.748452,-0.166369 0.883308,-0.195163c0.134856,-0.025595 0.107885,0.58229 0.482111,0.611084c0.370855,0.025595 0.505711,-0.057589 0.825994,-0.307142s0.242741,-0.58229 0.266341,-0.831843c0.030343,-0.249553 0,-0.441516 0.350626,-0.361532c0.350626,0.083184 0.532682,-0.057589 0.505711,-0.332737c-0.026971,-0.278347 -0.320283,-0.611084 0.235998,-0.694269c0.563025,-0.083184 0.856337,-0.441516 1.203592,-0.441516c0.347255,0 1.311477,0.137574 1.412619,0c0.107885,-0.137574 0.563025,-0.777453 0.856337,-0.803048c0.225884,-0.022396 0.755195,-0.067187 1.297991,-0.134375c5.333563,6.030859 8.634168,13.706207 9.011766,22.09182c-0.397826,0.508704 -0.040457,0.975815 0.0708,1.305353c0.003371,0.095982 0.016857,0.185565 0.016857,0.281547c0,0.435118 -0.053942,0.860637 -0.0708,1.292555c-0.003371,0.006399 -0.003371,0.012798 -0.010114,0.019196zm-32.756571,-13.840581c-0.21577,0.041592 -0.569767,-0.166369 -0.569767,-0.457513s-0.306798,0.540698 -0.134856,0.79025c0.178684,0.249553 -0.350626,0.540698 -0.522568,0.540698s-0.306798,-0.37113 -0.26297,-0.745459c0.0472,-0.374329 -0.259598,-0.707066 -0.745081,-0.665474c-0.482111,0.044792 -0.701252,0.415921 -0.873194,0.540698c-0.178684,0.124776 -0.178684,0.828643 -0.134856,0.998211s0.043828,0.751858 -0.391083,0.707066c-0.397826,-0.041592 -0.310169,-0.745459 -0.266341,-0.998211c0.0472,-0.249553 -0.131485,-0.873435 0.0472,-1.202972c0.178684,-0.332737 0.697881,-0.457513 1.051878,-0.499106s1.092335,0.207961 1.22382,0.166369c0.134856,-0.044792 0.748452,-0.044792 1.051878,0c0.306798,0.035193 0.741709,0.783852 0.525939,0.825444zm0.785537,0.124776c0.134856,0.083184 1.048507,-0.124776 1.227191,0.083184c0.171942,0.207961 -0.182056,0.249553 -0.616967,0.415921c-0.434911,0.166369 -0.569767,0.124776 -0.745081,0.332737s-0.745081,0.287946 -1.00805,0.537498c-0.26297,0.252752 -0.731595,0.399924 -0.829366,0.207961c-0.134856,-0.249553 0.043828,-0.124776 0.084285,-0.249553c0.043828,-0.124776 0.825994,-0.412722 0.825994,-0.412722s0.930508,-0.998211 1.061993,-0.915027zm-3.50289,-1.455725c-0.128113,0.041592 -0.613596,-0.083184 -1.011421,-0.083184c-0.391083,0 -0.306798,-0.249553 -0.482111,-0.204761c-0.171942,0.041592 -0.566396,0.124776 -0.832737,0.249553c-0.26297,0.124776 -0.701252,0.095982 -0.701252,-0.127976c0,-0.332737 0.175313,-0.249553 0.745081,-0.457513c0.569767,-0.207961 1.186735,-0.79025 1.446333,-0.540698c0.26297,0.249553 0.745081,0.540698 1.051878,0.58229c0.310169,0.044792 -0.087657,0.540698 -0.21577,0.58229zm-4.480597,-12.89676c-0.266341,0.083184 -1.169878,0.444716 -1.082221,0.63668c0.033714,0.073586 0.26297,0.220758 0.640567,0.166369c0.380969,-0.057589 0.930508,-0.111979 1.196849,-0.137574c0.26297,-0.028795 0.320283,-0.444716 0.030343,-0.470311c-0.293312,-0.028795 -0.525939,-0.278347 -0.785537,-0.195163zm-3.23992,0.332737c-0.205656,0.083184 -0.819251,-0.137574 -1.139535,0.057589c-0.205656,0.121577 -0.087657,0.524701 0.235998,0.550296c0.320283,0.028795 0.873194,-0.191964 0.930508,-0.025595c0.060685,0.166369 0.26297,0.915027 0.788909,0.665474c0.525939,-0.249553 0.495597,-0.470311 0.640567,-0.499106c0.14497,-0.028795 -0.026971,-0.63668 -0.26297,-0.777453c-0.232627,-0.137574 -0.991193,-0.05439 -1.193477,0.028795zm-1.05525,-2.354754c0.057314,0.140773 -0.026971,0.249553 0.380969,0.303942c0.40794,0.057589 0.583253,0.111979 0.819251,0.111979c0.232627,0 0.141599,-0.361532 -0.060685,-0.607885c-0.205656,-0.249553 -0.14497,-0.220758 -0.67091,-0.361532c-0.525939,-0.137574 -1.051878,-0.137574 -1.402504,-0.111979c-0.350626,0.028795 -0.731595,-0.05439 -0.819251,0.332737c-0.043828,0.198362 0.235998,0.358332 0.586624,0.358332s1.109192,-0.163169 1.166506,-0.025595zm0.761938,1.522912c0.14497,0.303942 0.14497,0.163169 0.556282,0.195163c0.404569,0.028795 0.724852,-0.387127 0.755195,-0.524701c0.030343,-0.140773 -0.205656,-0.415921 -0.758566,-0.361532c-0.556282,0.05439 -2.248727,-0.083184 -2.481354,0.108779c-0.222513,0.185565 0,0.745459 -0.087657,0.803048c-0.087657,0.05439 0.030343,0.303942 0.259598,0.249553c0.232627,-0.05439 0.350626,-0.58229 0.529311,-0.58229c0.175313,0.003199 1.082221,-0.191964 1.227191,0.111979zm-5.492019,-1.135785c0.175313,0.137574 0.616967,0.025595 0.583253,-0.111979c-0.026971,-0.137574 0.178684,-0.694269 -0.171942,-0.719864c-0.350626,-0.025595 -0.842851,0.307142 -1.372162,0.47351c-0.340512,0.10558 -0.26297,0.415921 -0.030343,0.415921s0.819251,-0.195163 0.991193,-0.057589zm2.488097,0.499106c-0.293312,0.137574 -0.38434,0.220758 -0.643938,0.166369c-0.26297,-0.05439 -0.26297,-0.499106 -0.731595,-0.415921c-0.465254,0.083184 -0.55291,0.332737 -0.697881,0.444716s-0.468625,0.195163 -0.583253,0.137574c-0.114628,-0.05439 -0.788909,-0.412722 -0.788909,-0.412722s-1.402504,-0.057589 -1.459818,-0.223958c-0.057314,-0.166369 -0.289941,-0.441516 -0.933879,-0.387127s-1.753131,0.415921 -1.928444,0.415921c-0.175313,0 0.209027,0.332737 -0.030343,0.332737c-0.232627,0 -0.522568,-0.025595 -0.610224,0.220758c-0.060685,0.169568 0.26297,0.166369 0.637196,0.166369c0.377597,0 0.994564,0 1.169878,-0.083184c0.175313,-0.083184 1.051878,-0.278347 1.021536,-0.028795c-0.030343,0.252752 0.350626,0.63668 0.55291,0.58229c0.205656,-0.05439 0.616967,-0.415921 0.819251,-0.275148c0.205656,0.137574 0.235998,0.467112 0.438283,0.553495c0.205656,0.079985 0.761938,0.079985 1.024907,0c0.259598,-0.086384 0.991193,-0.086384 1.311477,-0.028795c0.320283,0.057589 1.257534,0.220758 1.345191,0.057589c0.087657,-0.169568 0.350626,-0.195163 0.377597,-0.361532s0.171942,-0.691069 0.171942,-0.691069s-0.171942,-0.307142 -0.461882,-0.169568zm14.783611,28.656978c-0.401197,0.067187 -0.306798,0.806247 0.175313,0.671873c0.482111,-0.134375 0.222513,-0.74226 -0.175313,-0.671873zm3.809688,-0.991812c-0.350626,-0.083184 -0.745081,0 -1.00805,0.041592c-0.26297,0.041592 -1.00805,0.665474 -1.00805,0.665474s0.482111,0.083184 0.785537,0.083184c0.310169,0 0.485482,0.163169 0.745081,0.287946c0.26297,0.127976 0.745081,-0.166369 0.917022,-0.166369c0.178684,0 0.397826,0.499106 0.441654,-0.041592c0.0472,-0.540698 -0.522568,-0.787051 -0.873194,-0.870235zm-12.201115,-26.945302c-0.14497,-0.332737 -0.873194,-0.444716 -1.024907,-0.111979c-0.128113,0.291145 1.169878,0.444716 1.024907,0.111979zm8.35097,24.907288c0.482111,-0.083184 0.21577,-0.460713 -0.178684,-0.415921c-0.397826,0.041592 -0.306798,0.499106 0.178684,0.415921zm5.822416,2.569114c-0.401197,0.070387 -0.310169,0.809447 0.171942,0.675072c0.485482,-0.134375 0.222513,-0.74226 -0.171942,-0.675072zm-5.30322,-1.238166c-0.303426,0.041592 -0.96085,-0.287946 -1.311477,-0.58229c-0.350626,-0.291145 -1.00805,-0.291145 -1.27102,-0.291145c-0.259598,0 -1.314848,0.291145 -1.314848,0.291145c-0.043828,0.415921 0.394454,0.291145 0.920394,0.291145s1.446333,-0.083184 1.614903,0.124776c0.178684,0.204761 0.964222,0.537498 1.186735,0.707066c0.21577,0.166369 0.917022,0.207961 0.96085,0.041592s-0.47874,-0.623882 -0.785537,-0.58229zm-5.222306,-26.542178c-0.438283,-0.028795 -0.994564,-0.028795 -1.345191,0c-0.350626,0.025595 -0.613596,-0.220758 -0.876565,-0.361532c-0.259598,-0.137574 -0.846223,-0.58229 -1.193477,-0.63668c-0.350626,-0.05439 -0.289941,-0.05439 -1.021536,-0.220758c-0.370855,-0.086384 -0.991193,-0.195163 -0.991193,-0.275148c0,-0.083184 -0.175313,0.387127 0.14497,0.5279c0.320283,0.137574 0.846223,0.387127 1.22382,0.524701c0.38434,0.137574 1.109192,0.166369 1.345191,0.444716c0.232627,0.275148 1.021536,0.499106 1.021536,0.499106l0.933879,0.083184c0,0 0.643938,-0.137574 1.314848,-0.083184c0.67091,0.05439 1.662103,0.137574 2.221756,0.111979c0.549539,-0.025595 0.637196,-0.195163 0.701252,-0.303942c0.053942,-0.111979 -1.024907,-0.332737 -1.291248,-0.303942c-0.256227,0.019196 -1.753131,0.019196 -2.188042,-0.006399zm1.63176,6.373194c-0.114628,0.124776 0.529311,0.303942 0.643938,0.137574c0.114628,-0.163169 -0.343883,-0.441516 -0.643938,-0.137574zm1.962158,0.57909c0.289941,-0.111979 0.14497,-0.444716 -0.266341,-0.332737c-0.465254,0.127976 -0.030343,0.444716 0.266341,0.332737z" fill="#ff0000" id="svg_24" stroke="#000000" stroke-dasharray="null" stroke-linecap="null" stroke-linejoin="null" stroke-width="0" transform="rotate(-0.228294 142.025 197.21)"/>
   <path d="m191.108015,201.410834c0,-6.23805 -45.156468,-11.294996 -100.859772,-11.294996l0,-9.035997l0,0c55.703304,0 100.859772,5.056941 100.859772,11.294996l0,9.035997c0,5.150499 -31.113378,9.648709 -75.64483,10.936334l0,4.517999l-25.214942,-8.677334l25.214942,-9.394659l0,4.517999l0,0c30.027896,-0.868254 54.819498,-3.235262 67.224578,-6.418335" fill="#007f3f" id="svg_25" opacity="0.75" stroke="#000000" stroke-dasharray="null" stroke-linecap="null" stroke-linejoin="null" stroke-width="0" transform="rotate(152.929 140.678 198.973)"/>
   <text fill="#000000" font-family="serif" font-size="24" id="svg_35" stroke="#000000" stroke-dasharray="null" stroke-linecap="null" stroke-linejoin="null" stroke-width="0" text-anchor="middle" transform="matrix(1.67223 0 0 1.85132 -510.205 -35.7099)" x="389.964292" xml:space="preserve" y="82.439858">A. H. V.</text>
  </g>
 </g>
</svg>